<svg width="16" height="16" viewBox="0 0 16 16" fill="none" xmlns="http://www.w3.org/2000/svg">
<path fill-rule="evenodd" clip-rule="evenodd" d="M11.915 4.5H13V5.5H11.915C11.8119 5.79299 11.6204 6.04677 11.367 6.22629C11.1135 6.40581 10.8106 6.50223 10.5 6.50223C10.1894 6.50223 9.88647 6.40581 9.63301 6.22629C9.37955 6.04677 9.18807 5.79299 9.085 5.5H3V4.5H9.085C9.18807 4.207 9.37955 3.95323 9.63301 3.77371C9.88647 3.59418 10.1894 3.49777 10.5 3.49777C10.8106 3.49777 11.1135 3.59418 11.367 3.77371C11.6204 3.95323 11.8119 4.207 11.915 4.5V4.5ZM6.915 8.75H13V7.75H6.915C6.81193 7.457 6.62045 7.20323 6.36699 7.02371C6.11353 6.84418 5.8106 6.74777 5.5 6.74777C5.1894 6.74777 4.88647 6.84418 4.63301 7.02371C4.37955 7.20323 4.18807 7.457 4.085 7.75H3V8.75H4.085C4.18807 9.04299 4.37955 9.29677 4.63301 9.47629C4.88647 9.65581 5.1894 9.75223 5.5 9.75223C5.8106 9.75223 6.11353 9.65581 6.36699 9.47629C6.62045 9.29677 6.81193 9.04299 6.915 8.75V8.75ZM13 12H11.915C11.8119 12.293 11.6204 12.5468 11.367 12.7263C11.1135 12.9058 10.8106 13.0022 10.5 13.0022C10.1894 13.0022 9.88647 12.9058 9.63301 12.7263C9.37955 12.5468 9.18807 12.293 9.085 12H3V11H9.085C9.18807 10.707 9.37955 10.4532 9.63301 10.2737C9.88647 10.0942 10.1894 9.99777 10.5 9.99777C10.8106 9.99777 11.1135 10.0942 11.367 10.2737C11.6204 10.4532 11.8119 10.707 11.915 11H13V12Z" fill="white"/>
</svg>
