<svg width="16" height="16" viewBox="0 0 16 16" fill="none" xmlns="http://www.w3.org/2000/svg">
<path fill-rule="evenodd" clip-rule="evenodd" d="M7.99998 14C7.01333 13.9999 6.04193 13.7564 5.17182 13.2913C4.30172 12.8261 3.55975 12.1535 3.01166 11.3331C2.46356 10.5127 2.12623 9.56975 2.02957 8.58785C1.9329 7.60594 2.07987 6.61534 2.45747 5.7038C2.83506 4.79226 3.43162 3.9879 4.1943 3.36197C4.95699 2.73603 5.86227 2.30785 6.82996 2.11533C7.79765 1.92281 8.79788 1.9719 9.74207 2.25825C10.6863 2.54461 11.5453 3.05939 12.243 3.757L12.95 3.05C11.971 2.0711 10.7237 1.40449 9.36586 1.13445C8.00801 0.864411 6.60058 1.00308 5.32154 1.53291C4.0425 2.06275 2.94929 2.95995 2.18015 4.11108C1.41101 5.26221 1.00049 6.61556 1.00049 8C1.00049 9.38444 1.41101 10.7378 2.18015 11.8889C2.94929 13.04 4.0425 13.9373 5.32154 14.4671C6.60058 14.9969 8.00801 15.1356 9.36586 14.8655C10.7237 14.5955 11.971 13.9289 12.95 12.95L12.243 12.243C11.6864 12.801 11.025 13.2434 10.2968 13.545C9.56868 13.8465 8.7881 14.0011 7.99998 14ZM11.146 5.354L13.293 7.5H4.99998V8.5H13.293L11.147 10.646L11.854 11.354L14.854 8.354C14.9005 8.30755 14.9375 8.25238 14.9627 8.19163C14.9879 8.13089 15.0009 8.06577 15.0009 8C15.0009 7.93423 14.9879 7.86911 14.9627 7.80837C14.9375 7.74762 14.9005 7.69245 14.854 7.646L11.854 4.646L11.147 5.354H11.146Z" fill="white"/>
</svg>
