<svg width="48" height="48" viewBox="0 0 48 48" fill="none" xmlns="http://www.w3.org/2000/svg">
<path d="M23.999 8C20.139 8 16.999 11.14 16.999 15C16.999 18.972 20.027 22 23.999 22C27.774 22 30.999 18.915 30.999 15.18C30.999 11.132 27.999 8 23.999 8ZM39 40H8.99898C8.83379 39.9979 8.67182 39.9541 8.5281 39.8726C8.38439 39.7911 8.26361 39.6747 8.17698 39.534C8.08471 39.3865 8.02674 39.2201 8.00736 39.0472C7.98797 38.8743 8.00766 38.6993 8.06498 38.535L11.065 29.869C11.0757 29.8334 11.089 29.7986 11.105 29.765C11.157 29.655 12.411 27 14.999 27H32.999C35.555 27 36.81 29.588 36.893 29.76L36.896 29.765L39.936 38.535C40.052 38.869 40.008 39.242 39.822 39.535C39.7354 39.6756 39.6146 39.792 39.4708 39.8733C39.3271 39.9546 39.1651 39.9982 39 40V40Z" fill="white"/>
</svg>
